<svg width="80" height="80" viewBox="0 0 80 80" fill="none" xmlns="http://www.w3.org/2000/svg">
<path d="M78.811 49.654C73.4734 71.0695 51.7832 84.1465 30.3283 78.8058C8.91278 73.4519 -4.14326 51.7615 1.19428 30.346C6.53182 8.93052 28.209 -4.14654 49.6115 1.19424C71.0794 6.46958 84.1354 28.2254 78.811 49.654Z" fill="#E84142"/>
<path d="M20.789 56.4788H28.5518C30.3797 56.4788 31.2935 56.4788 32.1091 56.2527C33.0033 55.9874 33.8189 55.5158 34.4968 54.8673C35.1196 54.2736 35.569 53.4872 36.4558 51.9355L36.4819 51.8898L46.55 34.0921C47.4443 32.5297 47.8865 31.7435 48.083 30.9181C48.2992 30.0239 48.2992 29.0806 48.083 28.1863C47.8881 27.3677 47.4416 26.5877 46.5618 25.0506L46.5604 25.0475L46.5401 25.0124L42.5998 18.1339C41.7843 16.6992 41.3715 15.9819 40.8506 15.7166C40.2906 15.4317 39.6224 15.4317 39.0623 15.7166C38.5414 15.9819 38.1287 16.6992 37.3131 18.1339L18.1456 51.9193C17.3397 53.3343 16.9369 54.0418 16.9664 54.6216C17.0057 55.2505 17.33 55.8203 17.8606 56.1643C18.3521 56.4788 19.1577 56.4788 20.789 56.4788Z" fill="white"/>
<path d="M59.2792 56.4796H48.1557C46.5145 56.4796 45.6893 56.4796 45.2077 56.1652C44.6772 55.8213 44.3528 55.2416 44.3135 54.6127C44.2843 54.0373 44.6905 53.3363 45.5031 51.9334L45.5222 51.9005L51.074 42.3688C51.8898 40.9637 52.3025 40.266 52.8135 40.0007C53.3736 39.7157 54.0319 39.7157 54.5919 40.0007C55.0993 40.2592 55.4946 40.9277 56.2776 42.2519L56.3411 42.3591L61.9127 51.8907L61.9931 52.0293C62.7655 53.362 63.1596 54.0422 63.1313 54.6028C63.1016 55.2317 62.7676 55.8114 62.2371 56.1554C61.7456 56.4796 60.9202 56.4796 59.2792 56.4796Z" fill="white"/>
</svg>
